<svg height="512pt" viewBox="-116 0 512 512" width="512pt" xmlns="http://www.w3.org/2000/svg"><path d="m147.796875 40.632812c0 4.289063-3.476563 7.765626-7.765625 7.765626s-7.765625-3.476563-7.765625-7.765626c0-4.289062 3.476563-7.769531 7.765625-7.769531s7.765625 3.480469 7.765625 7.769531zm0 0"/><path d="m272.5625 248.496094h-9.0625v-58.765625c0-22.40625-18.226562-40.632813-40.632812-40.632813h-33.917969v-25.632812c0-4.144532-3.359375-7.5-7.5-7.5h-9.066407v-83.613282c0-17.839843-14.511718-32.351562-32.351562-32.351562-17.835938 0-32.351562 14.511719-32.351562 32.351562v83.613282h-9.066407c-4.140625 0-7.5 3.355468-7.5 7.5v25.632812h-33.917969c-22.402343 0-40.628906 18.226563-40.628906 40.632813v58.765625h-9.066406c-4.140625 0-7.5 3.359375-7.5 7.5v33.132812c0 4.140625 3.359375 7.5 7.5 7.5h9.066406v75.304688c0 .011718-.003906.019531-.003906.03125v66.265625c0 13.273437 10.796875 24.066406 24.066406 24.066406 13.273438 0 24.066406-10.792969 24.066406-24.066406v-16.566407c0-5 4.070313-9.066406 9.070313-9.066406 4.996094 0 9.0625 4.066406 9.0625 9.066406l.003906 49.699219c0 13.273438 10.796875 24.066407 24.066407 24.066407 13.269531 0 24.066406-10.796876 24.066406-24.066407v-16.566406c0-4.996094 4.066406-9.066406 9.066406-9.066406 4.996094 0 9.066406 4.070312 9.066406 9.066406v33.136719c0 13.269531 10.796875 24.066406 24.066406 24.066406 13.269532 0 24.066407-10.796875 24.066407-24.066406v-57.984375c0-5 4.066406-9.066407 9.066406-9.066407s9.066406 4.066407 9.066406 9.066407v8.28125c0 13.273437 10.796875 24.066406 24.066407 24.066406 13.269531 0 24.066406-10.792969 24.066406-24.066406v-66.246094c0-.007813 0-.011719 0-.019531v-75.335938h9.066406c4.140625 0 7.5-3.355468 7.5-7.5v-33.132812c0-4.140625-3.355469-7.5-7.5-7.5zm-149.882812-216.144532c0-9.570312 7.785156-17.351562 17.351562-17.351562s17.351562 7.78125 17.351562 17.351562v83.613282h-34.703124zm-16.566407 98.613282h67.835938v18.132812h-67.835938zm133.316407 316.332031c-4.996094 0-9.066407-4.066406-9.066407-9.066406v-8.28125c0-13.269531-10.796875-24.066407-24.066406-24.066407s-24.066406 10.796876-24.066406 24.066407l.003906 57.984375c0 5-4.070313 9.066406-9.070313 9.066406-4.996093 0-9.0625-4.066406-9.0625-9.066406l-.003906-33.136719c0-13.269531-10.796875-24.066406-24.066406-24.066406s-24.066406 10.796875-24.066406 24.070312l.003906 16.5625c0 5-4.070312 9.066407-9.070312 9.066407-4.996094 0-9.0625-4.066407-9.0625-9.066407l-.003907-49.699219c0-13.269531-10.796875-24.066406-24.066406-24.066406s-24.066406 10.796875-24.066406 24.066406v16.566407c0 5-4.066407 9.066406-9.066407 9.066406s-9.066406-4.066406-9.066406-9.066406v-58.765625h42.203125c2.507813 0 4.847657-1.253906 6.238281-3.34375l10.328126-15.488282 10.324218 15.488282c1.390625 2.089844 3.730469 3.34375 6.238282 3.34375h141.605468v58.765625c-.003906 5-4.074218 9.066406-9.074218 9.066406zm9.070312-82.832031h-18.136719v-42.203125c0-4.140625-3.355469-7.5-7.5-7.5-4.140625 0-7.5 3.359375-7.5 7.5v42.203125h-18.132812v-42.203125c0-4.140625-3.355469-7.5-7.5-7.5-4.140625 0-7.5 3.359375-7.5 7.5v42.203125h-18.132813v-42.203125c0-4.140625-3.355468-7.5-7.5-7.5-4.144531 0-7.5 3.359375-7.5 7.5v42.203125h-18.132812v-42.203125c0-4.140625-3.359375-7.5-7.5-7.5s-7.5 3.359375-7.5 7.5v42.203125h-5.054688l-13.078125-19.621094v-22.582031c0-4.140625-3.359375-7.5-7.5-7.5s-7.5 3.359375-7.5 7.5v22.578125l-13.082031 19.625h-5.050781v-42.203125c0-4.140625-3.359375-7.5-7.5-7.5s-7.5 3.359375-7.5 7.5v42.203125h-18.132813v-67.835938h216.933594zm16.5625-82.835938h-250.0625v-18.132812h60.308594c4.140625 0 7.5-3.355469 7.5-7.5 0-4.140625-3.359375-7.5-7.5-7.5h-43.742188v-34.695313h25.632813c4.144531 0 7.5-3.359375 7.5-7.5 0-4.144531-3.355469-7.5-7.5-7.5h-25.632813v-9.070312c0-14.132813 11.5-25.632813 25.632813-25.632813h41.398437c.003906 0 .011719.003906.015625.003906.007813 0 .015625-.003906.019531-.003906h82.796876c.003906 0 .011718.003906.015624.003906.007813 0 .015626-.003906.019532-.003906h41.398437c14.136719 0 25.632813 11.5 25.632813 25.632813v9.070312h-25.632813c-4.140625 0-7.5 3.355469-7.5 7.5 0 4.140625 3.359375 7.5 7.5 7.5h25.632813v34.695313h-143.140625c-4.140625 0-7.5 3.359375-7.5 7.5 0 4.144531 3.359375 7.5 7.5 7.5h159.707031zm0 0"/></svg>